HIERARCHY
ROOT Reference
{
  OFFSET 0 0 0
  CHANNELS 6 Xposition Yposition Zposition Zrotation Xrotation Yrotation
  JOINT Hips
  {
    OFFSET 251.394 724.17 483.536
    CHANNELS 3 Zrotation Xrotation Yrotation
    JOINT RightUpLeg
    {
      OFFSET -0.450515 -23.4426 -1.37224
      CHANNELS 3 Zrotation Xrotation Yrotation
      JOINT RightLeg
      {
        OFFSET 112.821 0.0872427 -0.321027
        CHANNELS 3 Zrotation Xrotation Yrotation
        JOINT RightFoot
        {
          OFFSET 105.718 0.000193788 0.0213165
          CHANNELS 3 Zrotation Xrotation Yrotation
          JOINT RightToeBase
          {
            OFFSET 37.638 -0.000116272 0.00224792
            CHANNELS 3 Zrotation Xrotation Yrotation
            JOINT RightToeEnd
            {
              OFFSET 21.2112 0.114605 -0.000138184
              CHANNELS 3 Zrotation Xrotation Yrotation
              End Site
              {
                OFFSET 0 0 0
              }
            }
          }
        }
      }
    }
    JOINT LeftUpLeg
    {
      OFFSET -0.449508 23.4315 -1.37054
      CHANNELS 3 Zrotation Xrotation Yrotation
      JOINT LeftLeg
      {
        OFFSET 112.821 -0.0485242 -0.372458
        CHANNELS 3 Zrotation Xrotation Yrotation
        JOINT LeftFoot
        {
          OFFSET 105.716 0.00496094 -0.0229443
          CHANNELS 3 Zrotation Xrotation Yrotation
          JOINT LeftToeBase
          {
            OFFSET 37.639 0 0.00158905
            CHANNELS 3 Zrotation Xrotation Yrotation
            JOINT LeftToeEnd
            {
              OFFSET 21.2113 -0.125031 -0.00017438
              CHANNELS 3 Zrotation Xrotation Yrotation
              End Site
              {
                OFFSET 0 0 0
              }
            }
          }
        }
      }
    }
    JOINT Spine
    {
      OFFSET -5.01225 0.000463591 -9.60395
      CHANNELS 3 Zrotation Xrotation Yrotation
      JOINT Spine1
      {
        OFFSET 26.0222 -0.000271301 -0.000155029
        CHANNELS 3 Zrotation Xrotation Yrotation
        JOINT Spine2
        {
          OFFSET 27.173 -0.000155029 -0.000310058
          CHANNELS 3 Zrotation Xrotation Yrotation
          JOINT Spine3
          {
            OFFSET 36.3953 -0.000232544 7.75146e-005
            CHANNELS 3 Zrotation Xrotation Yrotation
            JOINT Neck
            {
              OFFSET 36.4331 0 -3.00261
              CHANNELS 3 Zrotation Xrotation Yrotation
              JOINT Head
              {
                OFFSET 23.0407 -0.000232544 -0.000310058
                CHANNELS 3 Zrotation Xrotation Yrotation
                End Site
                {
                  OFFSET 0 0 0
                }
              }
            }
            JOINT LeftShoulder
            {
              OFFSET 20.1317 6.74168 -12.6061
              CHANNELS 3 Zrotation Xrotation Yrotation
              JOINT LeftArm
              {
                OFFSET 34.2172 -5.81359e-005 7.75146e-005
                CHANNELS 3 Zrotation Xrotation Yrotation
                JOINT LeftForeArm
                {
                  OFFSET 65.4129 -0.0821605 0.0585235
                  CHANNELS 3 Zrotation Xrotation Yrotation
                  JOINT LeftHand
                  {
                    OFFSET 67.3883 0.0359667 0.0112396
                    CHANNELS 3 Zrotation Xrotation Yrotation
                    JOINT LeftHandThumb1
                    {
                      OFFSET 8.78386 2.85353 -6.05362
                      CHANNELS 3 Zrotation Xrotation Yrotation
                      JOINT LeftHandThumb2
                      {
                        OFFSET 8.25498 -0.000116272 -0.000174407
                        CHANNELS 3 Zrotation Xrotation Yrotation
                        JOINT LeftHandThumb3
                        {
                          OFFSET 7.24822 0.000310058 5.81358e-005
                          CHANNELS 3 Zrotation Xrotation Yrotation
                          JOINT LeftHandThumb4
                          {
                            OFFSET 7.0004 -3.87568e-005 -0.000310057
                            CHANNELS 3 Zrotation Xrotation Yrotation
                            End Site
                            {
                              OFFSET 0 0 0
                            }
                          }
                        }
                      }
                    }
                    JOINT LeftHandIndex1
                    {
                      OFFSET 24.0991 -1.01537 -5.40558
                      CHANNELS 3 Zrotation Xrotation Yrotation
                      JOINT LeftHandIndex2
                      {
                        OFFSET 7.26759 -0.000290679 -0.000465086
                        CHANNELS 3 Zrotation Xrotation Yrotation
                        JOINT LeftHandIndex3
                        {
                          OFFSET 7.13628 -1.93787e-005 0.000232543
                          CHANNELS 3 Zrotation Xrotation Yrotation
                          JOINT LeftHandIndex4
                          {
                            OFFSET 5.46699 9.68932e-005 -0.000387571
                            CHANNELS 3 Zrotation Xrotation Yrotation
                            End Site
                            {
                              OFFSET 0 0 0
                            }
                          }
                        }
                      }
                    }
                    JOINT LeftHandMiddle1
                    {
                      OFFSET 24.4604 -2.52837 0.918567
                      CHANNELS 3 Zrotation Xrotation Yrotation
                      JOINT LeftHandMiddle2
                      {
                        OFFSET 7.41627 -5.81359e-005 0.000116271
                        CHANNELS 3 Zrotation Xrotation Yrotation
                        JOINT LeftHandMiddle3
                        {
                          OFFSET 8.76829 3.87573e-005 -7.75142e-005
                          CHANNELS 3 Zrotation Xrotation Yrotation
                          JOINT LeftHandMiddle4
                          {
                            OFFSET 6.07588 -0.00013565 -5.81356e-005
                            CHANNELS 3 Zrotation Xrotation Yrotation
                            End Site
                            {
                              OFFSET 0 0 0
                            }
                          }
                        }
                      }
                    }
                    JOINT LeftHandRing1
                    {
                      OFFSET 22.465 -1.97467 6.3466
                      CHANNELS 3 Zrotation Xrotation Yrotation
                      JOINT LeftHandRing2
                      {
                        OFFSET 7.36666 -0.000232544 0.000387571
                        CHANNELS 3 Zrotation Xrotation Yrotation
                        JOINT LeftHandRing3
                        {
                          OFFSET 8.07624 -0.000465087 -0.000203475
                          CHANNELS 3 Zrotation Xrotation Yrotation
                          JOINT LeftHandRing4
                          {
                            OFFSET 6.04433 0.00013565 3.87571e-005
                            CHANNELS 3 Zrotation Xrotation Yrotation
                            End Site
                            {
                              OFFSET 0 0 0
                            }
                          }
                        }
                      }
                    }
                    JOINT LeftHandPinky1
                    {
                      OFFSET 19.5278 0.352933 10.4295
                      CHANNELS 3 Zrotation Xrotation Yrotation
                      JOINT LeftHandPinky2
                      {
                        OFFSET 6.16525 5.8136e-005 -0.000251921
                        CHANNELS 3 Zrotation Xrotation Yrotation
                        JOINT LeftHandPinky3
                        {
                          OFFSET 6.14448 -0.000329434 -0.00510625
                          CHANNELS 3 Zrotation Xrotation Yrotation
                          JOINT LeftHandPinky4
                          {
                            OFFSET 4.98555 0.000116272 0.000116271
                            CHANNELS 3 Zrotation Xrotation Yrotation
                            End Site
                            {
                              OFFSET 0 0 0
                            }
                          }
                        }
                      }
                    }
                  }
                }
              }
            }
            JOINT RightShoulder
            {
              OFFSET 20.1309 -6.74152 -12.6063
              CHANNELS 3 Zrotation Xrotation Yrotation
              JOINT RightArm
              {
                OFFSET 34.2171 7.75146e-005 7.75146e-005
                CHANNELS 3 Zrotation Xrotation Yrotation
                JOINT RightForeArm
                {
                  OFFSET 65.4492 0.242543 -0.176501
                  CHANNELS 3 Zrotation Xrotation Yrotation
                  JOINT RightHand
                  {
                    OFFSET 67.3888 -0.0867388 0.0597442
                    CHANNELS 3 Zrotation Xrotation Yrotation
                    JOINT RightHandThumb1
                    {
                      OFFSET 8.78307 -2.85357 -6.05302
                      CHANNELS 3 Zrotation Xrotation Yrotation
                      JOINT RightHandThumb2
                      {
                        OFFSET 8.25493 -7.75145e-005 0
                        CHANNELS 3 Zrotation Xrotation Yrotation
                        JOINT RightHandThumb3
                        {
                          OFFSET 7.24797 -0.000174408 0.000155029
                          CHANNELS 3 Zrotation Xrotation Yrotation
                          JOINT RightHandThumb4
                          {
                            OFFSET 7.00062 0 0
                            CHANNELS 3 Zrotation Xrotation Yrotation
                            End Site
                            {
                              OFFSET 0 0 0
                            }
                          }
                        }
                      }
                    }
                    JOINT RightHandIndex1
                    {
                      OFFSET 24.0991 1.01525 -5.40578
                      CHANNELS 3 Zrotation Xrotation Yrotation
                      JOINT RightHandIndex2
                      {
                        OFFSET 7.26773 7.75144e-005 0.000232543
                        CHANNELS 3 Zrotation Xrotation Yrotation
                        JOINT RightHandIndex3
                        {
                          OFFSET 7.13572 -0.000310058 3.87571e-005
                          CHANNELS 3 Zrotation Xrotation Yrotation
                          JOINT RightHandIndex4
                          {
                            OFFSET 5.46717 0 3.87572e-005
                            CHANNELS 3 Zrotation Xrotation Yrotation
                            End Site
                            {
                              OFFSET 0 0 0
                            }
                          }
                        }
                      }
                    }
                    JOINT RightHandMiddle1
                    {
                      OFFSET 24.4603 2.52899 0.918547
                      CHANNELS 3 Zrotation Xrotation Yrotation
                      JOINT RightHandMiddle2
                      {
                        OFFSET 7.41641 -0.000116272 -0.000116272
                        CHANNELS 3 Zrotation Xrotation Yrotation
                        JOINT RightHandMiddle3
                        {
                          OFFSET 8.76765 -3.87577e-005 0.000232543
                          CHANNELS 3 Zrotation Xrotation Yrotation
                          JOINT RightHandMiddle4
                          {
                            OFFSET 6.07609 -0.000193787 -0.000116271
                            CHANNELS 3 Zrotation Xrotation Yrotation
                            End Site
                            {
                              OFFSET 0 0 0
                            }
                          }
                        }
                      }
                    }
                    JOINT RightHandRing1
                    {
                      OFFSET 22.465 1.97571 6.34696
                      CHANNELS 3 Zrotation Xrotation Yrotation
                      JOINT RightHandRing2
                      {
                        OFFSET 7.36684 0.000193786 0.000155029
                        CHANNELS 3 Zrotation Xrotation Yrotation
                        JOINT RightHandRing3
                        {
                          OFFSET 8.07614 -0.000271301 0
                          CHANNELS 3 Zrotation Xrotation Yrotation
                          JOINT RightHandRing4
                          {
                            OFFSET 6.04468 0.000232543 0
                            CHANNELS 3 Zrotation Xrotation Yrotation
                            End Site
                            {
                              OFFSET 0 0 0
                            }
                          }
                        }
                      }
                    }
                    JOINT RightHandPinky1
                    {
                      OFFSET 19.5277 -0.352346 10.4296
                      CHANNELS 3 Zrotation Xrotation Yrotation
                      JOINT RightHandPinky2
                      {
                        OFFSET 6.16508 0 0.000232543
                        CHANNELS 3 Zrotation Xrotation Yrotation
                        JOINT RightHandPinky3
                        {
                          OFFSET 6.14396 -0.000155048 -0.0048834
                          CHANNELS 3 Zrotation Xrotation Yrotation
                          JOINT RightHandPinky4
                          {
                            OFFSET 4.98577 -7.75146e-005 -7.75143e-005
                            CHANNELS 3 Zrotation Xrotation Yrotation
                            End Site
                            {
                              OFFSET 0 0 0
                            }
                          }
                        }
                      }
                    }
                  }
                }
              }
            }
          }
        }
      }
    }
  }
}
MOTION
Frames:	5
Frame Time:	0.0333333
0 0 0 -90 -7.01671e-015 -180 -135.219 77.2409 23.2774 142.471 -0.22305 -95.1619 -2.61955 -2.3774 -49.1051 16.5259 23.1551 35.6538 -17.1477 21.5044 58.3665 -5.03095e-007 4.1366e-006 -86.4974 168.481 -22.9943 -115.382 -0.254066 -0.088797 -5.02795 -8.80049 -2.45832 39.8255 -4.22204 4.03927 52.6675 3.47545e-005 -1.05865e-005 -86.4974 0.000488148 0.000101416 123.633 -8.3686 7.68899 -12.0467 14.2144 5.16269 -13.7921 0.339927 -2.94197 -8.66912 3.7319 -6.09695 38.6756 7.98725 -11.9977 46.067 105.841 21.8189 -31.0699 63.3992 15.2249 -8.38983 -11.0978 30.1247 28.0485 -1.02346 -46.9316 -3.57642 -158.644 -1.25081 154.969 0.000465916 -0.000147033 18.1945 0.00015189 -4.81117e-005 11.9589 0.000186975 -0.00134005 -0.000151543 36.0654 86.5083 -17.7567 -0.000309331 -0.000234309 14.4451 0.00112076 -0.000800326 10.5803 -0.000566593 -0.000439898 -2.32885 -1.69195 86.8812 32.8037 0.000109192 -0.000177642 15.1989 0.000916565 -0.000708537 16.0249 -0.000492563 -0.000365082 -2.3282 -58.256 83.2335 92.5776 0.000116173 -0.000862784 16.2201 0.00154075 -0.000411732 17.0667 -0.000614376 -0.000646479 -2.32754 -63.189 86.0926 89.0507 0.0011296 -0.00115012 19.279 0.000139257 -0.000153737 18.9148 -9.12981e-006 -1.77537e-005 -2.32873 -54.8344 -20.6854 -8.73295 -3.25775 45.0441 26.9664 7.08214 20.3326 24.6548 0.224072 35.6629 -10.3903 142.213 51.8015 169.894 -0.000193858 0.000101243 16.9256 7.86703e-005 8.05525e-005 18.8544 -0.000244141 -3.05176e-005 -180 -95.0294 -68.1709 -102.33 -0.000206743 -0.000224663 49.7581 2.38915e-005 -8.86562e-005 45.1945 -3.05176e-005 -0.000137329 -180 -105.983 -79.9218 -76.0642 -0.000217392 2.1584e-005 65.9845 -0.000314324 0.000349252 58.5702 3.05176e-005 -4.57764e-005 -180 -16.1798 -83.9647 34.4437 -0.000105627 0.000279753 55.5556 -0.000218506 -6.72075e-005 57.7158 -6.10351e-005 -0.000198364 -180 13.4555 -78.0188 70.4019 -0.000315291 0.000554309 51.2478 -5.9917e-005 0.000133463 49.3612 -6.10351e-005 -0.000137329 -180 
0 0 0 -90 -7.01671e-015 -180 -134.824 76.7452 22.9922 141.56 -0.176622 -95.3798 -2.53076 -2.27486 -49.3939 17.0983 23.5843 35.788 -17.1244 21.7046 58.1548 -5.68734e-007 3.67429e-006 -86.4974 168.412 -23.5754 -115.409 -0.252187 -0.0672391 -4.91644 -8.85338 -2.35265 39.6865 -4.35497 4.17231 52.549 3.47755e-005 -1.40819e-005 -86.4974 0.000404242 7.60856e-005 123.645 -8.38898 7.9194 -12.0557 14.6734 5.35011 -13.873 0.338102 -2.8461 -8.61768 3.62444 -5.95524 39.3496 8.40412 -11.9063 46.1195 106.302 21.7509 -31.3393 63.3836 15.1457 -8.48392 -11.1642 29.9437 28.1006 -1.1632 -47.0734 -3.71236 -158.631 -1.25359 155.026 0.000426108 -0.000176546 18.1819 0.00486441 0.000967276 11.9953 0.000231796 -0.00146636 -0.000187827 36.7703 86.5034 -18.3544 -0.000325445 -0.000207046 14.504 0.00111736 -0.000824135 10.6531 -0.000568042 -0.000443796 -2.22762 -1.61328 86.8979 32.8046 9.2648e-005 -0.000174031 15.2961 0.000959895 -0.000699069 16.0968 -0.000493735 -0.000362006 -2.22697 -58.199 83.2531 92.6037 0.000151837 -0.000907878 16.3326 0.00157787 -0.000411156 17.1537 -0.000618948 -0.000646885 -2.22631 -63.1863 86.0815 89.1774 0.00113472 -0.00116043 19.3746 0.00543263 0.00166147 18.9938 -0.000499313 -1.06918e-005 -2.22707 -54.6088 -20.6629 -8.60508 -2.52445 45.2022 26.3483 7.01943 19.7169 23.7866 -0.183531 35.7558 -9.83915 142.213 51.8015 169.894 -0.000193455 0.000101373 16.9256 7.83874e-005 8.04174e-005 18.8544 -0.000244141 -3.05176e-005 -180 -95.0294 -68.1709 -102.33 -0.000205806 -0.00022733 49.7581 3.54815e-005 -7.71188e-005 45.1944 -3.05176e-005 -0.000137329 -180 -105.983 -79.9218 -76.0642 -0.000216289 1.6159e-005 65.9845 -0.000314916 0.000344713 58.5702 3.05168e-005 -4.57764e-005 179.999 -16.1798 -83.9647 34.4437 -0.000106129 0.000274649 55.5556 -0.000218895 -7.07941e-005 57.7158 -6.10351e-005 -0.000198364 -180 13.4556 -78.0188 70.4019 -0.00031594 0.000543143 51.2478 -6.48763e-005 0.000124565 49.3612 -6.10351e-005 -0.000137329 -180 
0 0 0 -90 -7.01671e-015 -180 -134.873 76.2969 23.1111 140.778 -0.0169657 -95.4969 -2.45336 -2.1735 -49.8643 17.4179 23.7849 36.0797 -17.0426 21.9165 57.8116 -6.66858e-007 3.37858e-006 -86.4974 168.253 -23.9832 -115.532 -0.250837 -0.0528607 -4.76372 -9.16539 -2.02596 39.5401 -4.24884 4.06624 52.642 3.47788e-005 -1.74326e-005 -86.4974 0.000348307 5.91958e-005 123.656 -8.38796 8.09093 -12.0451 15.0062 5.50507 -13.9336 0.330323 -2.73543 -8.60653 3.53357 -5.82452 40.0566 8.75017 -11.7879 46.1602 106.514 21.6906 -31.5813 63.5897 15.1427 -8.53605 -11.2316 29.616 28.1851 -0.935254 -47.3493 -3.61286 -158.592 -1.2612 155.192 0.000445132 -0.000168721 18.1458 0.000112127 -3.00593e-005 12.0683 0.000274912 -0.00159827 -0.000226248 38.7897 86.4872 -20.0651 -0.00236483 -0.00095527 14.6821 0.0011237 -0.000820644 10.8625 -0.000566586 -0.000445214 -2.12638 -1.38668 86.9458 32.8073 9.75729e-005 -0.000183769 15.5763 0.000950146 -0.000710881 16.3039 -0.000496747 -0.000356849 -2.12574 -58.0364 83.3095 92.6803 0.000156097 -0.00089058 16.6568 0.00158891 -0.000424967 17.4044 -0.000618853 -0.000648738 -2.12509 -63.1745 86.0498 89.5382 0.000735396 -0.00137119 19.664 0.000124039 -0.000169401 19.213 -0.000984466 -4.3882e-007 -2.12541 -54.4767 -20.6392 -8.63318 -2.05928 45.5492 26.1759 6.77225 19.5576 22.8701 -0.69517 35.1117 -9.21636 142.213 51.8015 169.894 -0.000194566 0.000101042 16.9256 8.18288e-005 7.8154e-005 18.8544 -0.000244141 -4.57764e-005 -180 -95.0294 -68.1709 -102.33 -0.000206561 -0.000233803 49.7581 2.7595e-005 -8.51459e-005 45.1944 -3.05176e-005 -0.000137329 -180 -105.983 -79.9218 -76.0642 -0.000216443 5.90195e-006 65.9845 -0.000315046 0.000338087 58.5702 3.05161e-005 -4.57764e-005 179.998 -16.1798 -83.9647 34.4437 -0.000103883 0.000271715 55.5556 -0.000220428 -7.28258e-005 57.7158 -6.10351e-005 -0.000213623 -180 13.4555 -78.0188 70.4019 -0.000314119 0.000532151 51.2478 -5.73454e-005 0.000128177 49.3612 -6.10351e-005 -0.000152588 -180 
0 0 0 -90 -7.01671e-015 -180 -134.928 75.6657 23.2599 140.64 -0.252801 -95.589 -2.39069 -2.08054 -50.4404 17.6935 23.7437 36.0921 -17.2288 22.1174 57.9943 -8.79521e-007 3.54974e-006 -86.4974 168.102 -24.4885 -115.676 -0.248835 -0.0240794 -4.60772 -9.15179 -1.81573 39.4141 -4.24663 4.06365 52.6469 3.47529e-005 -2.38142e-005 -86.4974 0.000421817 0.0001186 123.723 -8.3429 8.19421 -12.0107 15.5057 5.63071 -14.0086 0.316274 -2.61233 -8.68481 3.50723 -5.77661 40.7784 8.91079 -11.524 46.216 106.645 21.6511 -31.7363 63.7055 15.1192 -8.49266 -11.1022 29.3292 28.1541 -1.06003 -47.4029 -3.50691 -158.529 -1.27318 155.456 0.000441109 -0.000147703 18.0788 0.000719149 8.48117e-005 12.2241 0.000321018 -0.00172575 -0.000262532 41.9656 86.4554 -22.75 -0.000322767 -0.000224524 14.9436 0.00111782 -0.000801108 11.1958 -0.000565644 -0.000447623 -2.02515 -1.02569 87.0222 32.8109 -0.00571657 -0.00262673 16.0267 0.00094248 -0.000679578 16.6333 -0.000499148 -0.000355119 -2.02451 -57.7801 83.3997 92.8044 -0.00529988 -0.00338568 17.1779 0.00159961 -0.000418403 17.8032 -0.000621291 -0.000649605 -2.02386 -63.144 85.9994 90.1003 -0.00421908 -0.00410779 20.091 0.000173236 -0.000168193 19.5651 -0.00147384 6.87338e-006 -2.02376 -54.3495 -20.6078 -8.74505 -1.2676 45.5833 25.5105 6.58473 18.6513 22.2164 -0.933875 35.5862 -8.74993 142.213 51.8015 169.894 -0.000193461 9.89625e-005 16.9256 7.8501e-005 6.93226e-005 18.8544 -0.000244141 -6.10352e-005 -180 -95.0295 -68.1709 -102.33 -0.00020599 -0.000243772 49.7581 3.45254e-005 -8.17445e-005 45.1944 -3.05175e-005 -0.000167847 -180 -105.983 -79.9218 -76.0643 -0.000216174 -1.1383e-005 65.9845 -0.000314844 0.000326559 58.5702 3.05153e-005 -4.57764e-005 179.997 -16.1798 -83.9647 34.4436 -0.000105599 0.000257651 55.5556 -0.000219335 -7.53912e-005 57.7158 -6.10351e-005 -0.000228882 -180 13.4556 -78.0188 70.4019 -0.00031554 0.000507058 51.2477 -6.03592e-005 0.000118223 49.3612 -6.10351e-005 -0.000152588 -180 
0 0 0 -90 -7.01671e-015 -180 -134.594 75.1911 23.0783 140.377 -0.36774 -95.5505 -2.33026 -1.99167 -50.9808 17.8262 24.1259 36.0225 -17.3595 22.45 57.9749 -6.9902e-007 -2.53417e-006 -86.4974 167.675 -24.8032 -115.842 -0.247328 -0.000240877 -4.45416 -9.30309 -1.3203 39.3274 -4.18172 3.99934 52.7042 3.4745e-005 -3.67887e-005 -86.4974 0.000363399 5.94458e-005 123.817 -8.2591 8.28236 -12.0339 15.9701 5.75084 -14.1534 0.297714 -2.46487 -8.75395 3.40818 -5.63679 41.4512 9.07941 -11.2931 46.2372 106.85 21.6084 -31.9004 63.7101 15.0924 -8.52758 -11.1871 29.2252 28.2769 -0.988069 -47.7662 -3.3592 -158.446 -1.28798 155.807 0.00043911 -0.000125354 18.0118 0.00132426 0.000214615 12.3799 0.000364557 -0.00185152 -0.000298388 46.1129 86.4015 -26.2428 -0.000305139 -0.000216306 15.3032 0.0011418 -0.000804913 11.6398 -0.000567661 -0.000453527 -1.92391 -0.54449 87.1241 32.8155 8.09098e-005 -0.000176092 16.6156 0.000971548 -0.000695885 17.0721 -0.000500253 -0.000349911 -1.92328 -57.4444 83.5203 92.9756 0.000158852 -0.000890704 17.8591 0.00160079 -0.000418426 18.3344 -0.000620266 -0.000649351 -1.92263 -63.0817 85.9322 90.8275 0.00115704 -0.00116689 20.6725 0.000152109 -0.00014455 20.0343 -0.00195908 1.07475e-005 -1.92209 -54.2882 -20.5933 -8.82397 -0.578772 45.5176 24.9924 6.6677 17.5704 21.5205 -1.21416 36.4354 -8.30775 142.213 51.8016 169.894 -0.000193636 9.2517e-005 16.9256 7.90501e-005 5.71363e-005 18.8543 -0.000244141 -9.15527e-005 -180 -95.0295 -68.1709 -102.33 -0.000205801 -0.000263657 49.7581 3.58539e-005 -8.64839e-005 45.1944 -3.05175e-005 -0.000198364 -180 -105.983 -79.9218 -76.0644 -0.000215973 -4.35355e-005 65.9845 -0.000315616 0.000298877 58.5702 3.05146e-005 -4.57764e-005 179.996 -16.1799 -83.9647 34.4436 -0.00010546 0.000237595 55.5556 -0.000219216 -8.19148e-005 57.7158 -6.10351e-005 -0.000259399 -180 13.4556 -78.0188 70.4019 -0.000315702 0.000462071 51.2477 -6.46962e-005 9.774e-005 49.3612 -6.10351e-005 -0.000183105 -180 
